<?xml version="1.0" encoding="UTF-8" standalone="no"?><!DOCTYPE svg PUBLIC "-//W3C//DTD SVG 1.1//EN" "http://www.w3.org/Graphics/SVG/1.1/DTD/svg11.dtd"><!-- Generated by graphviz version 2.40.1 (20161225.0304)
 --><!-- Title: celery&#45;operator Pages: 1 --><svg xmlns="http://www.w3.org/2000/svg" xmlns:xlink="http://www.w3.org/1999/xlink" width="588pt" height="148pt" viewBox="0.00 0.00 588.00 148.00">
<g id="graph0" class="graph" transform="scale(1 1) rotate(0) translate(4 144)">
<title>celery-operator</title>
<polygon fill="#ffffff" stroke="transparent" points="-4,4 -4,-144 584,-144 584,4 -4,4"/>
<g id="clust1" class="cluster">
<title>cluster</title>
<polygon fill="none" stroke="#000000" points="194,-80 194,-132 364,-132 364,-80 194,-80"/>
</g>
<g id="clust2" class="cluster">
<title>cluster_0</title>
<polygon fill="none" stroke="#000000" points="8,-8 8,-60 182,-60 182,-8 8,-8"/>
</g>
<g id="clust3" class="cluster">
<title>cluster_1</title>
<polygon fill="none" stroke="#000000" points="190,-8 190,-60 368,-60 368,-8 190,-8"/>
</g>
<g id="clust4" class="cluster">
<title>cluster_2</title>
<polygon fill="none" stroke="#000000" points="376,-8 376,-60 572,-60 572,-8 376,-8"/>
</g>
<!-- celery_controller -->
<g id="node1" class="node">
<title>celery_controller</title>
<ellipse fill="none" stroke="#000000" cx="279" cy="-106" rx="76.983" ry="18"/>
<text text-anchor="middle" x="279" y="-101.8" font-family="Times,serif" font-size="14.00" fill="#000000">celery_controller</text>
</g>
<!-- broker_controller -->
<g id="node2" class="node">
<title>broker_controller</title>
<ellipse fill="none" stroke="#000000" cx="95" cy="-34" rx="78.7124" ry="18"/>
<text text-anchor="middle" x="95" y="-29.8" font-family="Times,serif" font-size="14.00" fill="#000000">broker_controller</text>
</g>
<!-- celery_controller&#45;&gt;broker_controller -->
<g id="edge1" class="edge">
<title>celery_controller-&gt;broker_controller</title>
<path fill="none" stroke="#000000" d="M239.0747,-90.3771C211.2257,-79.4796 173.8844,-64.8678 144.1958,-53.2505"/>
<polygon fill="#000000" stroke="#000000" points="145.4352,-49.9771 134.8473,-49.5924 142.8844,-56.4958 145.4352,-49.9771"/>
</g>
<!-- worker_controller -->
<g id="node3" class="node">
<title>worker_controller</title>
<ellipse fill="none" stroke="#000000" cx="279" cy="-34" rx="80.9988" ry="18"/>
<text text-anchor="middle" x="279" y="-29.8" font-family="Times,serif" font-size="14.00" fill="#000000">worker_controller</text>
</g>
<!-- celery_controller&#45;&gt;worker_controller -->
<g id="edge2" class="edge">
<title>celery_controller-&gt;worker_controller</title>
<path fill="none" stroke="#000000" d="M279,-87.8314C279,-80.131 279,-70.9743 279,-62.4166"/>
<polygon fill="#000000" stroke="#000000" points="282.5001,-62.4132 279,-52.4133 275.5001,-62.4133 282.5001,-62.4132"/>
</g>
<!-- scheduler_controller -->
<g id="node4" class="node">
<title>scheduler_controller</title>
<ellipse fill="none" stroke="#000000" cx="474" cy="-34" rx="90.3082" ry="18"/>
<text text-anchor="middle" x="474" y="-29.8" font-family="Times,serif" font-size="14.00" fill="#000000">scheduler_controller</text>
</g>
<!-- celery_controller&#45;&gt;scheduler_controller -->
<g id="edge3" class="edge">
<title>celery_controller-&gt;scheduler_controller</title>
<path fill="none" stroke="#000000" d="M320.3545,-90.7307C349.8377,-79.8446 389.7113,-65.122 421.4497,-53.4032"/>
<polygon fill="#000000" stroke="#000000" points="422.8492,-56.6175 431.0179,-49.8703 420.4246,-50.0508 422.8492,-56.6175"/>
</g>
</g>
</svg>